<svg width="184" height="28" viewBox="0 0 184 28" fill="none" xmlns="http://www.w3.org/2000/svg">
<path d="M7.79834 13.2236C7.79834 16.0166 10.0708 18.2891 12.8638 18.2891C13.9683 18.2891 14.9775 17.9336 15.8091 17.3369L18.9321 20.4663C19.0781 20.6123 19.2686 20.6821 19.4717 20.6821C19.9033 20.6821 20.2017 20.3584 20.2017 19.9331C20.2017 19.73 20.1255 19.5459 19.9922 19.4126L16.8882 16.2896C17.542 15.439 17.9292 14.3789 17.9292 13.2236C17.9292 10.4307 15.6567 8.1582 12.8638 8.1582C10.0708 8.1582 7.79834 10.4307 7.79834 13.2236ZM8.88379 13.2236C8.88379 11.0273 10.6675 9.24365 12.8638 9.24365C15.0601 9.24365 16.8438 11.0273 16.8438 13.2236C16.8438 15.4199 15.0601 17.2036 12.8638 17.2036C10.6675 17.2036 8.88379 15.4199 8.88379 13.2236Z" fill="white" fill-opacity="0.55"/>
<path d="M33.8153 11.9091C33.7599 11.4413 33.5353 11.0781 33.1413 10.8196C32.7474 10.5611 32.2642 10.4318 31.6918 10.4318C31.2732 10.4318 30.907 10.4995 30.593 10.6349C30.2822 10.7704 30.0391 10.9566 29.8636 11.1935C29.6913 11.4305 29.6051 11.6998 29.6051 12.0014C29.6051 12.2538 29.6651 12.4708 29.7852 12.6523C29.9083 12.8308 30.0652 12.9801 30.256 13.1001C30.4469 13.2171 30.6469 13.314 30.8562 13.391C31.0655 13.4648 31.2578 13.5249 31.4332 13.571L32.3935 13.8295C32.6397 13.8942 32.9136 13.9834 33.2152 14.0973C33.5199 14.2112 33.8107 14.3666 34.0877 14.5636C34.3678 14.7575 34.5986 15.0067 34.7802 15.3114C34.9618 15.6161 35.0526 15.9901 35.0526 16.4332C35.0526 16.9441 34.9187 17.4058 34.6509 17.8182C34.3862 18.2306 33.9985 18.5584 33.4876 18.8015C32.9798 19.0446 32.3627 19.1662 31.6364 19.1662C30.9593 19.1662 30.373 19.0569 29.8775 18.8384C29.3851 18.6199 28.9973 18.3152 28.7141 17.9244C28.4341 17.5335 28.2756 17.0795 28.2386 16.5625H29.4205C29.4512 16.9195 29.5713 17.215 29.7805 17.4489C29.9929 17.6797 30.2607 17.852 30.5838 17.9659C30.91 18.0767 31.2609 18.1321 31.6364 18.1321C32.0734 18.1321 32.4658 18.0613 32.8136 17.9197C33.1613 17.7751 33.4368 17.575 33.6399 17.3196C33.843 17.0611 33.9446 16.7595 33.9446 16.4148C33.9446 16.1009 33.8569 15.8454 33.6815 15.6484C33.506 15.4515 33.2752 15.2914 32.989 15.1683C32.7028 15.0452 32.3935 14.9375 32.0611 14.8452L30.8977 14.5128C30.1591 14.3004 29.5743 13.9973 29.1435 13.6033C28.7126 13.2094 28.4972 12.6939 28.4972 12.0568C28.4972 11.5275 28.6403 11.0658 28.9265 10.6719C29.2158 10.2749 29.6036 9.96709 30.0898 9.74858C30.5792 9.52699 31.1255 9.41619 31.7287 9.41619C32.3381 9.41619 32.8797 9.52545 33.3537 9.74396C33.8277 9.9594 34.2031 10.2549 34.4801 10.6303C34.7602 11.0058 34.9079 11.4321 34.9233 11.9091H33.8153ZM39.3602 19.1477C38.677 19.1477 38.0876 18.9969 37.5921 18.6953C37.0997 18.3906 36.7196 17.9659 36.4518 17.4212C36.1872 16.8733 36.0548 16.2363 36.0548 15.5099C36.0548 14.7836 36.1872 14.1435 36.4518 13.5895C36.7196 13.0324 37.092 12.5985 37.569 12.2876C38.0491 11.9737 38.6093 11.8168 39.2494 11.8168C39.6187 11.8168 39.9834 11.8783 40.3435 12.0014C40.7036 12.1245 41.0314 12.3246 41.3268 12.6016C41.6223 12.8755 41.8577 13.2386 42.0332 13.6911C42.2086 14.1435 42.2963 14.7005 42.2963 15.3622V15.8239H36.8304V14.8821H41.1883C41.1883 14.482 41.1083 14.125 40.9483 13.8111C40.7913 13.4972 40.5666 13.2494 40.2743 13.0678C39.985 12.8862 39.6434 12.7955 39.2494 12.7955C38.8155 12.7955 38.44 12.9032 38.123 13.1186C37.8091 13.331 37.5675 13.608 37.3982 13.9496C37.2289 14.2912 37.1443 14.6574 37.1443 15.0483V15.6761C37.1443 16.2116 37.2366 16.6656 37.4213 17.038C37.609 17.4073 37.8691 17.6889 38.2015 17.8828C38.5339 18.0736 38.9201 18.169 39.3602 18.169C39.6464 18.169 39.905 18.129 40.1358 18.049C40.3697 17.9659 40.5713 17.8428 40.7405 17.6797C40.9098 17.5135 41.0406 17.3073 41.1329 17.0611L42.1855 17.3565C42.0747 17.7135 41.8885 18.0275 41.6269 18.2983C41.3653 18.5661 41.0421 18.7753 40.6574 18.9261C40.2727 19.0739 39.8403 19.1477 39.3602 19.1477ZM45.6403 19.1662C45.1909 19.1662 44.7831 19.0816 44.4169 18.9123C44.0506 18.7399 43.7598 18.4922 43.5444 18.169C43.3289 17.8428 43.2212 17.4489 43.2212 16.9872C43.2212 16.581 43.3012 16.2517 43.4613 15.9993C43.6213 15.7438 43.8352 15.5438 44.103 15.3991C44.3707 15.2545 44.6662 15.1468 44.9893 15.076C45.3156 15.0021 45.6433 14.9437 45.9726 14.9006C46.4035 14.8452 46.7528 14.8036 47.0206 14.7759C47.2914 14.7451 47.4884 14.6944 47.6115 14.6236C47.7377 14.5528 47.8008 14.4297 47.8008 14.2543V14.2173C47.8008 13.7618 47.6761 13.4079 47.4268 13.1555C47.1806 12.9032 46.8067 12.777 46.305 12.777C45.7849 12.777 45.3771 12.8909 45.0817 13.1186C44.7862 13.3464 44.5785 13.5895 44.4584 13.848L43.4243 13.4787C43.609 13.0478 43.8552 12.7124 44.163 12.4723C44.4738 12.2292 44.8124 12.0599 45.1786 11.9645C45.5479 11.866 45.9111 11.8168 46.2681 11.8168C46.4958 11.8168 46.7574 11.8445 47.0529 11.8999C47.3514 11.9522 47.6392 12.0614 47.9162 12.2276C48.1962 12.3938 48.4286 12.6446 48.6133 12.9801C48.7979 13.3156 48.8903 13.7649 48.8903 14.3281V19H47.8008V18.0398H47.7454C47.6715 18.1937 47.5484 18.3583 47.376 18.5337C47.2037 18.7092 46.9744 18.8584 46.6882 18.9815C46.402 19.1046 46.0527 19.1662 45.6403 19.1662ZM45.8064 18.1875C46.2373 18.1875 46.6005 18.1029 46.8959 17.9336C47.1945 17.7643 47.4191 17.5458 47.5699 17.2781C47.7238 17.0103 47.8008 16.7287 47.8008 16.4332V15.4361C47.7546 15.4915 47.653 15.5423 47.4961 15.5884C47.3422 15.6315 47.1637 15.67 46.9606 15.7038C46.7605 15.7346 46.5651 15.7623 46.3743 15.7869C46.1865 15.8085 46.0342 15.8269 45.9172 15.8423C45.6341 15.8793 45.3694 15.9393 45.1232 16.0224C44.8801 16.1024 44.6831 16.224 44.5323 16.3871C44.3846 16.5471 44.3107 16.7656 44.3107 17.0426C44.3107 17.4212 44.4507 17.7074 44.7308 17.9013C45.0139 18.0921 45.3725 18.1875 45.8064 18.1875ZM50.4788 19V11.9091H51.5314V12.9801H51.6052C51.7345 12.6293 51.9684 12.3446 52.3069 12.1261C52.6455 11.9076 53.0271 11.7983 53.4518 11.7983C53.5318 11.7983 53.6319 11.7998 53.7519 11.8029C53.8719 11.806 53.9627 11.8106 54.0243 11.8168V12.9247C53.9873 12.9155 53.9027 12.9016 53.7703 12.8832C53.6411 12.8616 53.5041 12.8509 53.3595 12.8509C53.0148 12.8509 52.707 12.9232 52.4362 13.0678C52.1684 13.2094 51.9561 13.4064 51.7991 13.6587C51.6452 13.908 51.5683 14.1927 51.5683 14.5128V19H50.4788ZM57.5806 19.1477C56.9158 19.1477 56.3434 18.9908 55.8632 18.6768C55.3831 18.3629 55.0138 17.9305 54.7553 17.3796C54.4968 16.8287 54.3675 16.1993 54.3675 15.4915C54.3675 14.7713 54.4998 14.1358 54.7645 13.5849C55.0323 13.0309 55.4047 12.5985 55.8817 12.2876C56.3618 11.9737 56.922 11.8168 57.5621 11.8168C58.0607 11.8168 58.51 11.9091 58.9101 12.0938C59.3102 12.2784 59.638 12.5369 59.8934 12.8693C60.1489 13.2017 60.3074 13.5895 60.3689 14.0327H59.2794C59.1963 13.7095 59.0117 13.4233 58.7255 13.174C58.4423 12.9216 58.0607 12.7955 57.5806 12.7955C57.1559 12.7955 56.7835 12.9062 56.4634 13.1278C56.1464 13.3464 55.8986 13.6557 55.7201 14.0558C55.5447 14.4528 55.457 14.919 55.457 15.4545C55.457 16.0024 55.5432 16.4794 55.7155 16.8857C55.8909 17.2919 56.1372 17.6074 56.4542 17.832C56.7742 18.0567 57.1497 18.169 57.5806 18.169C57.8637 18.169 58.1207 18.1198 58.3515 18.0213C58.5824 17.9228 58.7778 17.7812 58.9378 17.5966C59.0979 17.4119 59.2117 17.1903 59.2794 16.9318H60.3689C60.3074 17.3504 60.155 17.7274 59.9119 18.0629C59.6718 18.3952 59.3533 18.6599 58.9563 18.8569C58.5623 19.0508 58.1038 19.1477 57.5806 19.1477ZM62.6511 14.7344V19H61.5616V9.54545H62.6511V13.017H62.7434C62.9096 12.6508 63.1589 12.36 63.4913 12.1445C63.8268 11.926 64.273 11.8168 64.8301 11.8168C65.3133 11.8168 65.7364 11.9137 66.0996 12.1076C66.4628 12.2984 66.7444 12.5923 66.9444 12.9893C67.1475 13.3833 67.2491 13.8849 67.2491 14.4943V19H66.1596V14.5682C66.1596 14.005 66.0134 13.5695 65.7211 13.2617C65.4318 12.9509 65.0301 12.7955 64.5162 12.7955C64.1592 12.7955 63.8391 12.8709 63.5559 13.0217C63.2759 13.1725 63.0543 13.3925 62.8912 13.6818C62.7311 13.9711 62.6511 14.322 62.6511 14.7344Z" fill="#F3E6D3" fill-opacity="0.4"/>
<rect x="1" y="0.5" width="182" height="27" rx="5.5" stroke="#F3E6D3" stroke-opacity="0.08"/>
</svg>
