
<svg width="673" height="42" viewBox="0 0 673 42" fill="none" xmlns="http://www.w3.org/2000/svg">
    <g filter="url(#filter0_b_106_1019)">
        <g filter="url(#filter1_d_106_1019)">
            <path d="M7.94238 27.1704H21.3066C22.8008 27.1704 23.6641 26.3071 23.6641 24.5972V15.4331C23.6641 13.7314 22.7925 12.8682 21.0576 12.8682H7.69336C6.19922 12.8682 5.33594 13.7231 5.33594 15.4331V24.5972C5.33594 26.3154 6.20752 27.1704 7.94238 27.1704ZM13.5122 20.4385L7.24512 14.2544C7.42773 14.1797 7.64355 14.1382 7.89258 14.1382H21.1074C21.3647 14.1382 21.5889 14.1797 21.7715 14.2627L15.521 20.4385C15.1641 20.7954 14.8403 20.9531 14.5166 20.9531C14.1846 20.9531 13.8608 20.7871 13.5122 20.4385ZM6.60596 24.5972V15.4331C6.60596 15.3667 6.60596 15.3999 6.60596 15.3418L11.3789 20.0317L6.61426 24.7383C6.60596 24.6968 6.60596 24.647 6.60596 24.5972ZM22.394 15.4414V24.6055C22.394 24.6387 22.394 24.6802 22.394 24.7134L17.6543 20.0317L22.394 15.3667C22.394 15.4414 22.394 15.4414 22.394 15.4414ZM7.89258 25.9004C7.66016 25.9004 7.46094 25.8672 7.28662 25.7925L12.2505 20.8867L12.79 21.418C13.3711 21.9907 13.9272 22.2314 14.5166 22.2314C15.0977 22.2314 15.6621 21.9907 16.2432 21.418L16.7827 20.8867L21.7383 25.7842C21.5557 25.8672 21.3481 25.9004 21.1074 25.9004H7.89258Z" fill="#F3E6D3" fill-opacity="0.4"/>
            <path d="M63.2593 13.2002L63.8569 12.5859C64.1392 12.2871 64.1392 11.8887 63.8569 11.6147L63.666 11.4155C63.4087 11.1582 63.002 11.1914 62.728 11.457L62.1221 12.0547L63.2593 13.2002ZM53.2734 22.2563L54.8921 21.5508L62.645 13.8062L61.5078 12.6855L53.7632 20.4302L53.0161 21.9907C52.9497 22.1318 53.1157 22.3228 53.2734 22.2563ZM50.252 27.6353H59.9971C61.4912 27.6353 62.3545 26.772 62.3545 25.062V16.1885L61.0181 17.5249V24.9956C61.0181 25.8589 60.5532 26.2988 59.9805 26.2988H50.2769C49.4468 26.2988 48.9819 25.8589 48.9819 24.9956V15.5742C48.9819 14.7109 49.4468 14.2627 50.2769 14.2627H57.8389L59.1753 12.9263H50.252C48.5254 12.9263 47.6455 13.7896 47.6455 15.4995V25.062C47.6455 26.7803 48.5254 27.6353 50.252 27.6353Z" fill="#F3E6D3" fill-opacity="0.4"/>
            <path d="M158.443 27.6602H167.549C169.184 27.6602 170.056 26.8135 170.056 25.1865V16.9189C170.861 16.7861 171.292 16.1802 171.292 15.292V14.0303C171.292 13.0176 170.736 12.3784 169.715 12.3784H156.276C155.305 12.3784 154.699 13.0176 154.699 14.0303V15.292C154.699 16.1802 155.131 16.7861 155.936 16.9189V25.1865C155.936 26.8218 156.808 27.6602 158.443 27.6602ZM156.617 15.6904C156.202 15.6904 156.036 15.5161 156.036 15.1011V14.2212C156.036 13.8062 156.202 13.6318 156.617 13.6318H169.383C169.798 13.6318 169.956 13.8062 169.956 14.2212V15.1011C169.956 15.5161 169.798 15.6904 169.383 15.6904H156.617ZM158.426 26.4067C157.679 26.4067 157.272 26 157.272 25.2529V16.9438H168.719V25.2529C168.719 26 168.304 26.4067 167.565 26.4067H158.426ZM160.261 20.2891H165.739C166.088 20.2891 166.337 20.0483 166.337 19.6831V19.4175C166.337 19.0522 166.088 18.8198 165.739 18.8198H160.261C159.912 18.8198 159.671 19.0522 159.671 19.4175V19.6831C159.671 20.0483 159.912 20.2891 160.261 20.2891Z" fill="#F3E6D3" fill-opacity="0.4"/>
            <rect x="185.5" y="10" width="1" height="20" fill="#F3E6D3" fill-opacity="0.07"/>
            <path d="M205.198 28.5151H212.81C213.997 28.5151 214.794 27.7432 214.852 26.5562L215.425 14.4868H216.421C216.761 14.4868 217.035 14.1963 217.035 13.856C217.035 13.5156 216.761 13.2334 216.421 13.2334H212.627V11.9634C212.627 10.7598 211.847 10.0293 210.569 10.0293H207.415C206.136 10.0293 205.356 10.7598 205.356 11.9634V13.2334H201.587C201.255 13.2334 200.965 13.5156 200.965 13.856C200.965 14.2046 201.255 14.4868 201.587 14.4868H202.575L203.156 26.5645C203.214 27.7515 203.995 28.5151 205.198 28.5151ZM206.676 12.0464C206.676 11.5732 207.008 11.2661 207.506 11.2661H210.478C210.976 11.2661 211.308 11.5732 211.308 12.0464V13.2334H206.676V12.0464ZM205.314 27.2617C204.841 27.2617 204.484 26.9048 204.459 26.415L203.878 14.4868H214.088L213.541 26.415C213.524 26.9131 213.167 27.2617 212.677 27.2617H205.314ZM206.543 25.8423C206.858 25.8423 207.066 25.6431 207.058 25.3525L206.8 16.4707C206.792 16.1802 206.584 15.9893 206.286 15.9893C205.97 15.9893 205.763 16.1885 205.771 16.479L206.02 25.3525C206.028 25.6514 206.236 25.8423 206.543 25.8423ZM209 25.8423C209.315 25.8423 209.54 25.6431 209.54 25.3525V16.479C209.54 16.1885 209.315 15.9893 209 15.9893C208.685 15.9893 208.469 16.1885 208.469 16.479V25.3525C208.469 25.6431 208.685 25.8423 209 25.8423ZM211.465 25.8423C211.764 25.8423 211.972 25.6514 211.98 25.3525L212.229 16.479C212.237 16.1885 212.03 15.9893 211.714 15.9893C211.416 15.9893 211.208 16.1802 211.2 16.479L210.951 25.3525C210.942 25.6431 211.15 25.8423 211.465 25.8423Z" fill="#F3E6D3" fill-opacity="0.4"/>
            <rect x="231.5" y="10" width="1" height="20" fill="#F3E6D3" fill-opacity="0.07"/>
            <path d="M250.634 27.6602H259.35C260.985 27.6602 261.707 26.8965 261.956 25.2695L263.185 16.9438H263.375C264.396 16.9438 264.953 16.3047 264.953 15.292V14.0303C264.953 13.0176 264.396 12.3784 263.375 12.3784H246.616C245.645 12.3784 245.039 13.0176 245.039 14.0303V15.292C245.039 16.3047 245.595 16.9438 246.616 16.9438H246.799L248.036 25.2695C248.276 26.9048 249.007 27.6602 250.634 27.6602ZM246.957 15.6904C246.542 15.6904 246.375 15.5161 246.375 15.1011V14.2212C246.375 13.8062 246.542 13.6318 246.957 13.6318H263.043C263.458 13.6318 263.616 13.8062 263.616 14.2212V15.1011C263.616 15.5161 263.458 15.6904 263.043 15.6904H246.957ZM250.659 26.4067C249.912 26.4067 249.48 26.0747 249.364 25.2529L248.127 16.9438H261.865L260.628 25.2529C260.503 26.0747 260.063 26.4067 259.333 26.4067H250.659ZM252.593 24.6719C252.759 24.6719 252.908 24.5889 253.033 24.4727L254.992 22.5054L256.959 24.4727C257.075 24.5806 257.225 24.6719 257.407 24.6719C257.756 24.6719 258.046 24.373 258.046 24.0244C258.046 23.8335 257.963 23.7007 257.847 23.5762L255.896 21.6172L257.855 19.6333C257.98 19.5005 258.055 19.376 258.055 19.2017C258.055 18.8447 257.772 18.5625 257.407 18.5625C257.25 18.5625 257.108 18.6289 256.976 18.7617L254.992 20.729L253.024 18.77C252.892 18.6455 252.759 18.5791 252.593 18.5791C252.236 18.5791 251.945 18.853 251.945 19.2017C251.945 19.3843 252.028 19.5254 252.145 19.6416L254.095 21.6172L252.145 23.5845C252.028 23.7007 251.945 23.8418 251.945 24.0244C251.945 24.373 252.236 24.6719 252.593 24.6719Z" fill="#F3E6D3" fill-opacity="0.4"/>
            <path d="M305.78 27.6187C306.344 27.6187 306.751 27.2036 306.751 26.6475V23.4766H306.992C310.212 23.4766 312.238 24.29 313.69 27.0044C313.981 27.5356 314.363 27.6187 314.711 27.6187C315.151 27.6187 315.566 27.2202 315.566 26.5063C315.566 20.3721 312.968 16.5454 306.992 16.5454H306.751V13.4077C306.751 12.8516 306.344 12.395 305.763 12.395C305.356 12.395 305.083 12.5693 304.643 12.9844L298.093 19.1104C297.77 19.4175 297.67 19.7246 297.67 20.0068C297.67 20.2808 297.778 20.5962 298.093 20.895L304.643 27.0791C305.041 27.4526 305.373 27.6187 305.78 27.6187ZM305.307 25.834C305.257 25.834 305.207 25.8091 305.166 25.7593L299.247 20.1646C299.181 20.0981 299.156 20.0566 299.156 20.0068C299.156 19.957 299.181 19.9072 299.247 19.8491L305.157 14.1797C305.199 14.1465 305.249 14.1133 305.298 14.1133C305.373 14.1133 305.415 14.1631 305.415 14.2295V17.5249C305.415 17.7158 305.506 17.7988 305.697 17.7988H306.809C312.503 17.7988 314.222 21.75 314.388 25.668C314.388 25.7344 314.363 25.7593 314.321 25.7593C314.288 25.7593 314.271 25.7344 314.247 25.6763C313.267 23.5928 310.752 22.2231 306.809 22.2231H305.697C305.506 22.2231 305.415 22.3062 305.415 22.4971V25.7095C305.415 25.7842 305.373 25.834 305.307 25.834Z" fill="#F3E6D3" fill-opacity="0.4"/>
            <rect x="329.5" y="10" width="1" height="20" fill="#F3E6D3" fill-opacity="0.07"/>
            <path d="M349.829 27.6187C350.394 27.6187 350.8 27.2036 350.8 26.6475V25.1699L352.826 27.0791C353.224 27.4526 353.556 27.6187 353.963 27.6187C354.527 27.6187 354.934 27.2036 354.934 26.6475V23.4766H355.175C358.396 23.4766 360.421 24.29 361.874 27.0044C362.164 27.5356 362.546 27.6187 362.895 27.6187C363.334 27.6187 363.75 27.2202 363.75 26.5063C363.75 20.3721 361.143 16.5454 355.175 16.5454H354.934V13.4077C354.934 12.8516 354.527 12.395 353.946 12.395C353.54 12.395 353.266 12.5693 352.826 12.9844L350.8 14.877V13.4077C350.8 12.8516 350.394 12.395 349.812 12.395C349.406 12.395 349.132 12.5693 348.692 12.9844L342.134 19.1104C341.811 19.4175 341.719 19.7246 341.719 20.0068C341.719 20.2808 341.819 20.5962 342.134 20.895L348.692 27.0791C349.082 27.4526 349.422 27.6187 349.829 27.6187ZM353.49 25.834C353.44 25.834 353.39 25.8091 353.34 25.7593L347.43 20.1646C347.364 20.0981 347.339 20.0566 347.339 20.0068C347.339 19.957 347.364 19.9072 347.43 19.8491L353.34 14.1797C353.382 14.1465 353.432 14.1133 353.481 14.1133C353.556 14.1133 353.598 14.1631 353.598 14.2295V17.5249C353.598 17.7158 353.689 17.7988 353.88 17.7988H354.992C360.687 17.7988 362.405 21.75 362.571 25.668C362.571 25.7344 362.546 25.7593 362.504 25.7593C362.471 25.7593 362.455 25.7344 362.43 25.6763C361.45 23.5928 358.935 22.2231 354.992 22.2231H353.88C353.689 22.2231 353.598 22.3062 353.598 22.4971V25.7095C353.598 25.7842 353.556 25.834 353.49 25.834ZM349.207 25.7593L343.296 20.1646C343.23 20.0981 343.205 20.0566 343.205 20.0068C343.205 19.957 343.23 19.9072 343.296 19.8491L349.207 14.1797C349.248 14.1465 349.298 14.1133 349.348 14.1133C349.422 14.1133 349.464 14.1631 349.464 14.2295V16.1221L346.276 19.1104C345.953 19.4175 345.853 19.7246 345.853 20.0068C345.853 20.2808 345.961 20.5962 346.276 20.895L349.464 23.9082V25.7095C349.464 25.7842 349.422 25.834 349.348 25.834C349.306 25.834 349.256 25.8091 349.207 25.7593Z" fill="#F3E6D3" fill-opacity="0.4"/>
            <rect x="375.5" y="10" width="1" height="20" fill="#F3E6D3" fill-opacity="0.07"/>
            <path d="M400.212 27.6187C400.619 27.6187 400.951 27.4526 401.349 27.0791L407.898 20.895C408.214 20.5962 408.322 20.2808 408.322 20.0068C408.322 19.7246 408.222 19.4175 407.898 19.1104L401.349 12.9844C400.909 12.5693 400.635 12.395 400.229 12.395C399.647 12.395 399.232 12.8516 399.232 13.4077V16.5454H398.992C393.023 16.5454 390.425 20.3721 390.425 26.5063C390.425 27.2202 390.832 27.6187 391.28 27.6187C391.629 27.6187 392.011 27.5356 392.301 27.0044C393.746 24.29 395.779 23.4766 398.992 23.4766H399.232V26.6475C399.232 27.2036 399.647 27.6187 400.212 27.6187ZM400.685 25.834C400.619 25.834 400.569 25.7842 400.569 25.7095V22.4971C400.569 22.3062 400.486 22.2231 400.295 22.2231H399.183C395.24 22.2231 392.725 23.5928 391.745 25.6763C391.72 25.7344 391.704 25.7593 391.662 25.7593C391.629 25.7593 391.604 25.7344 391.604 25.668C391.77 21.75 393.48 17.7988 399.183 17.7988H400.295C400.486 17.7988 400.569 17.7158 400.569 17.5249V14.2295C400.569 14.1631 400.619 14.1133 400.693 14.1133C400.743 14.1133 400.793 14.1465 400.834 14.1797L406.745 19.8491C406.803 19.9072 406.828 19.957 406.828 20.0068C406.828 20.0566 406.811 20.0981 406.745 20.1646L400.826 25.7593C400.785 25.8091 400.735 25.834 400.685 25.834Z" fill="#F3E6D3" fill-opacity="0.4"/>
            <path d="M492.798 19.2236C492.798 22.0166 495.071 24.2891 497.864 24.2891C498.968 24.2891 499.978 23.9336 500.809 23.3369L503.932 26.4663C504.078 26.6123 504.269 26.6821 504.472 26.6821C504.903 26.6821 505.202 26.3584 505.202 25.9331C505.202 25.73 505.125 25.5459 504.992 25.4126L501.888 22.2896C502.542 21.439 502.929 20.3789 502.929 19.2236C502.929 16.4307 500.657 14.1582 497.864 14.1582C495.071 14.1582 492.798 16.4307 492.798 19.2236ZM493.884 19.2236C493.884 17.0273 495.667 15.2437 497.864 15.2437C500.06 15.2437 501.844 17.0273 501.844 19.2236C501.844 21.4199 500.06 23.2036 497.864 23.2036C495.667 23.2036 493.884 21.4199 493.884 19.2236Z" fill="white" fill-opacity="0.55"/>
            <path d="M518.815 17.9091C518.76 17.4413 518.535 17.0781 518.141 16.8196C517.747 16.5611 517.264 16.4318 516.692 16.4318C516.273 16.4318 515.907 16.4995 515.593 16.6349C515.282 16.7704 515.039 16.9566 514.864 17.1935C514.691 17.4305 514.605 17.6998 514.605 18.0014C514.605 18.2538 514.665 18.4708 514.785 18.6523C514.908 18.8308 515.065 18.9801 515.256 19.1001C515.447 19.2171 515.647 19.314 515.856 19.391C516.065 19.4648 516.258 19.5249 516.433 19.571L517.393 19.8295C517.64 19.8942 517.914 19.9834 518.215 20.0973C518.52 20.2112 518.811 20.3666 519.088 20.5636C519.368 20.7575 519.599 21.0067 519.78 21.3114C519.962 21.6161 520.053 21.9901 520.053 22.4332C520.053 22.9441 519.919 23.4058 519.651 23.8182C519.386 24.2306 518.998 24.5584 518.488 24.8015C517.98 25.0446 517.363 25.1662 516.636 25.1662C515.959 25.1662 515.373 25.0569 514.877 24.8384C514.385 24.6199 513.997 24.3152 513.714 23.9244C513.434 23.5335 513.276 23.0795 513.239 22.5625H514.42C514.451 22.9195 514.571 23.215 514.781 23.4489C514.993 23.6797 515.261 23.852 515.584 23.9659C515.91 24.0767 516.261 24.1321 516.636 24.1321C517.073 24.1321 517.466 24.0613 517.814 23.9197C518.161 23.7751 518.437 23.575 518.64 23.3196C518.843 23.0611 518.945 22.7595 518.945 22.4148C518.945 22.1009 518.857 21.8454 518.681 21.6484C518.506 21.4515 518.275 21.2914 517.989 21.1683C517.703 21.0452 517.393 20.9375 517.061 20.8452L515.898 20.5128C515.159 20.3004 514.574 19.9973 514.143 19.6033C513.713 19.2094 513.497 18.6939 513.497 18.0568C513.497 17.5275 513.64 17.0658 513.926 16.6719C514.216 16.2749 514.604 15.9671 515.09 15.7486C515.579 15.527 516.125 15.4162 516.729 15.4162C517.338 15.4162 517.88 15.5254 518.354 15.744C518.828 15.9594 519.203 16.2549 519.48 16.6303C519.76 17.0058 519.908 17.4321 519.923 17.9091H518.815ZM524.36 25.1477C523.677 25.1477 523.088 24.9969 522.592 24.6953C522.1 24.3906 521.72 23.9659 521.452 23.4212C521.187 22.8733 521.055 22.2363 521.055 21.5099C521.055 20.7836 521.187 20.1435 521.452 19.5895C521.72 19.0324 522.092 18.5985 522.569 18.2876C523.049 17.9737 523.609 17.8168 524.249 17.8168C524.619 17.8168 524.983 17.8783 525.344 18.0014C525.704 18.1245 526.031 18.3246 526.327 18.6016C526.622 18.8755 526.858 19.2386 527.033 19.6911C527.209 20.1435 527.296 20.7005 527.296 21.3622V21.8239H521.83V20.8821H526.188C526.188 20.482 526.108 20.125 525.948 19.8111C525.791 19.4972 525.567 19.2494 525.274 19.0678C524.985 18.8862 524.643 18.7955 524.249 18.7955C523.815 18.7955 523.44 18.9032 523.123 19.1186C522.809 19.331 522.567 19.608 522.398 19.9496C522.229 20.2912 522.144 20.6574 522.144 21.0483V21.6761C522.144 22.2116 522.237 22.6656 522.421 23.038C522.609 23.4073 522.869 23.6889 523.201 23.8828C523.534 24.0736 523.92 24.169 524.36 24.169C524.646 24.169 524.905 24.129 525.136 24.049C525.37 23.9659 525.571 23.8428 525.741 23.6797C525.91 23.5135 526.041 23.3073 526.133 23.0611L527.185 23.3565C527.075 23.7135 526.889 24.0275 526.627 24.2983C526.365 24.5661 526.042 24.7753 525.657 24.9261C525.273 25.0739 524.84 25.1477 524.36 25.1477ZM530.64 25.1662C530.191 25.1662 529.783 25.0816 529.417 24.9123C529.051 24.7399 528.76 24.4922 528.544 24.169C528.329 23.8428 528.221 23.4489 528.221 22.9872C528.221 22.581 528.301 22.2517 528.461 21.9993C528.621 21.7438 528.835 21.5438 529.103 21.3991C529.371 21.2545 529.666 21.1468 529.989 21.076C530.316 21.0021 530.643 20.9437 530.973 20.9006C531.404 20.8452 531.753 20.8036 532.021 20.7759C532.291 20.7451 532.488 20.6944 532.611 20.6236C532.738 20.5528 532.801 20.4297 532.801 20.2543V20.2173C532.801 19.7618 532.676 19.4079 532.427 19.1555C532.181 18.9032 531.807 18.777 531.305 18.777C530.785 18.777 530.377 18.8909 530.082 19.1186C529.786 19.3464 529.578 19.5895 529.458 19.848L528.424 19.4787C528.609 19.0478 528.855 18.7124 529.163 18.4723C529.474 18.2292 529.812 18.0599 530.179 17.9645C530.548 17.866 530.911 17.8168 531.268 17.8168C531.496 17.8168 531.757 17.8445 532.053 17.8999C532.351 17.9522 532.639 18.0614 532.916 18.2276C533.196 18.3938 533.429 18.6446 533.613 18.9801C533.798 19.3156 533.89 19.7649 533.89 20.3281V25H532.801V24.0398H532.745C532.672 24.1937 532.548 24.3583 532.376 24.5337C532.204 24.7092 531.974 24.8584 531.688 24.9815C531.402 25.1046 531.053 25.1662 530.64 25.1662ZM530.806 24.1875C531.237 24.1875 531.6 24.1029 531.896 23.9336C532.194 23.7643 532.419 23.5458 532.57 23.2781C532.724 23.0103 532.801 22.7287 532.801 22.4332V21.4361C532.755 21.4915 532.653 21.5423 532.496 21.5884C532.342 21.6315 532.164 21.67 531.961 21.7038C531.761 21.7346 531.565 21.7623 531.374 21.7869C531.187 21.8085 531.034 21.8269 530.917 21.8423C530.634 21.8793 530.369 21.9393 530.123 22.0224C529.88 22.1024 529.683 22.224 529.532 22.3871C529.385 22.5471 529.311 22.7656 529.311 23.0426C529.311 23.4212 529.451 23.7074 529.731 23.9013C530.014 24.0921 530.372 24.1875 530.806 24.1875ZM535.479 25V17.9091H536.531V18.9801H536.605C536.734 18.6293 536.968 18.3446 537.307 18.1261C537.645 17.9076 538.027 17.7983 538.452 17.7983C538.532 17.7983 538.632 17.7998 538.752 17.8029C538.872 17.806 538.963 17.8106 539.024 17.8168V18.9247C538.987 18.9155 538.903 18.9016 538.77 18.8832C538.641 18.8616 538.504 18.8509 538.359 18.8509C538.015 18.8509 537.707 18.9232 537.436 19.0678C537.168 19.2094 536.956 19.4064 536.799 19.6587C536.645 19.908 536.568 20.1927 536.568 20.5128V25H535.479ZM542.581 25.1477C541.916 25.1477 541.343 24.9908 540.863 24.6768C540.383 24.3629 540.014 23.9305 539.755 23.3796C539.497 22.8287 539.368 22.1993 539.368 21.4915C539.368 20.7713 539.5 20.1358 539.765 19.5849C540.032 19.0309 540.405 18.5985 540.882 18.2876C541.362 17.9737 541.922 17.8168 542.562 17.8168C543.061 17.8168 543.51 17.9091 543.91 18.0938C544.31 18.2784 544.638 18.5369 544.893 18.8693C545.149 19.2017 545.307 19.5895 545.369 20.0327H544.279C544.196 19.7095 544.012 19.4233 543.725 19.174C543.442 18.9216 543.061 18.7955 542.581 18.7955C542.156 18.7955 541.783 18.9062 541.463 19.1278C541.146 19.3464 540.899 19.6557 540.72 20.0558C540.545 20.4528 540.457 20.919 540.457 21.4545C540.457 22.0024 540.543 22.4794 540.716 22.8857C540.891 23.2919 541.137 23.6074 541.454 23.832C541.774 24.0567 542.15 24.169 542.581 24.169C542.864 24.169 543.121 24.1198 543.352 24.0213C543.582 23.9228 543.778 23.7812 543.938 23.5966C544.098 23.4119 544.212 23.1903 544.279 22.9318H545.369C545.307 23.3504 545.155 23.7274 544.912 24.0629C544.672 24.3952 544.353 24.6599 543.956 24.8569C543.562 25.0508 543.104 25.1477 542.581 25.1477ZM547.651 20.7344V25H546.562V15.5455H547.651V19.017H547.743C547.91 18.6508 548.159 18.36 548.491 18.1445C548.827 17.926 549.273 17.8168 549.83 17.8168C550.313 17.8168 550.736 17.9137 551.1 18.1076C551.463 18.2984 551.744 18.5923 551.944 18.9893C552.148 19.3833 552.249 19.8849 552.249 20.4943V25H551.16V20.5682C551.16 20.005 551.013 19.5695 550.721 19.2617C550.432 18.9509 550.03 18.7955 549.516 18.7955C549.159 18.7955 548.839 18.8709 548.556 19.0217C548.276 19.1725 548.054 19.3925 547.891 19.6818C547.731 19.9711 547.651 20.322 547.651 20.7344Z" fill="#F3E6D3" fill-opacity="0.4"/>
            <rect x="486" y="6.5" width="182" height="27" rx="5.5" stroke="#F3E6D3" stroke-opacity="0.08"/>
        </g>
    </g>
    <defs>
        <filter id="filter0_b_106_1019" x="-65.5" y="-70" width="804" height="180" filterUnits="userSpaceOnUse" color-interpolation-filters="sRGB">
            <feFlood flood-opacity="0" result="BackgroundImageFix"/>
            <feGaussianBlur in="BackgroundImageFix" stdDeviation="35"/>
            <feComposite in2="SourceAlpha" operator="in" result="effect1_backgroundBlur_106_1019"/>
            <feBlend mode="normal" in="SourceGraphic" in2="effect1_backgroundBlur_106_1019" result="shape"/>
        </filter>
        <filter id="filter1_d_106_1019" x="0.5" y="0" width="672" height="48" filterUnits="userSpaceOnUse" color-interpolation-filters="sRGB">
            <feFlood flood-opacity="0" result="BackgroundImageFix"/>
            <feColorMatrix in="SourceAlpha" type="matrix" values="0 0 0 0 0 0 0 0 0 0 0 0 0 0 0 0 0 0 127 0" result="hardAlpha"/>
            <feOffset dy="4"/>
            <feGaussianBlur stdDeviation="2"/>
            <feComposite in2="hardAlpha" operator="out"/>
            <feColorMatrix type="matrix" values="0 0 0 0 0 0 0 0 0 0 0 0 0 0 0 0 0 0 0.25 0"/>
            <feBlend mode="normal" in2="BackgroundImageFix" result="effect1_dropShadow_106_1019"/>
            <feBlend mode="normal" in="SourceGraphic" in2="effect1_dropShadow_106_1019" result="shape"/>
        </filter>
    </defs>
</svg>
