<svg width="67" height="28" viewBox="0 0 67 28" fill="none" xmlns="http://www.w3.org/2000/svg">
<path d="M3.44238 21.1704H16.8066C18.3008 21.1704 19.1641 20.3071 19.1641 18.5972V9.43311C19.1641 7.73145 18.2925 6.86816 16.5576 6.86816H3.19336C1.69922 6.86816 0.835938 7.72314 0.835938 9.43311V18.5972C0.835938 20.3154 1.70752 21.1704 3.44238 21.1704ZM9.01221 14.4385L2.74512 8.25439C2.92773 8.17969 3.14355 8.13818 3.39258 8.13818H16.6074C16.8647 8.13818 17.0889 8.17969 17.2715 8.2627L11.021 14.4385C10.6641 14.7954 10.3403 14.9531 10.0166 14.9531C9.68457 14.9531 9.36084 14.7871 9.01221 14.4385ZM2.10596 18.5972V9.43311C2.10596 9.3667 2.10596 9.3999 2.10596 9.3418L6.87891 14.0317L2.11426 18.7383C2.10596 18.6968 2.10596 18.647 2.10596 18.5972ZM17.894 9.44141V18.6055C17.894 18.6387 17.894 18.6802 17.894 18.7134L13.1543 14.0317L17.894 9.3667C17.894 9.44141 17.894 9.44141 17.894 9.44141ZM3.39258 19.9004C3.16016 19.9004 2.96094 19.8672 2.78662 19.7925L7.75049 14.8867L8.29004 15.418C8.87109 15.9907 9.42725 16.2314 10.0166 16.2314C10.5977 16.2314 11.1621 15.9907 11.7432 15.418L12.2827 14.8867L17.2383 19.7842C17.0557 19.8672 16.8481 19.9004 16.6074 19.9004H3.39258Z" fill="#F3E6D3" fill-opacity="0.4"/>
<path d="M65.2593 7.2002L65.8569 6.58594C66.1392 6.28711 66.1392 5.88867 65.8569 5.61475L65.666 5.41553C65.4087 5.1582 65.002 5.19141 64.728 5.45703L64.1221 6.05469L65.2593 7.2002ZM55.2734 16.2563L56.8921 15.5508L64.645 7.80615L63.5078 6.68555L55.7632 14.4302L55.0161 15.9907C54.9497 16.1318 55.1157 16.3228 55.2734 16.2563ZM52.252 21.6353H61.9971C63.4912 21.6353 64.3545 20.772 64.3545 19.062V10.1885L63.0181 11.5249V18.9956C63.0181 19.8589 62.5532 20.2988 61.9805 20.2988H52.2769C51.4468 20.2988 50.9819 19.8589 50.9819 18.9956V9.57422C50.9819 8.71094 51.4468 8.2627 52.2769 8.2627H59.8389L61.1753 6.92627H52.252C50.5254 6.92627 49.6455 7.78955 49.6455 9.49951V19.062C49.6455 20.7803 50.5254 21.6353 52.252 21.6353Z" fill="#F3E6D3" fill-opacity="0.4"/>
</svg>
