<svg width="282" height="28" viewBox="0 0 282 28" fill="none" xmlns="http://www.w3.org/2000/svg">
<path d="M18.4429 21.6602H27.5488C29.1841 21.6602 30.0557 20.8135 30.0557 19.1865V10.9189C30.8608 10.7861 31.2925 10.1802 31.2925 9.29199V8.03027C31.2925 7.01758 30.7363 6.37842 29.7153 6.37842H16.2764C15.3052 6.37842 14.6992 7.01758 14.6992 8.03027V9.29199C14.6992 10.1802 15.1309 10.7861 15.936 10.9189V19.1865C15.936 20.8218 16.8076 21.6602 18.4429 21.6602ZM16.6167 9.69043C16.2017 9.69043 16.0356 9.51611 16.0356 9.10107V8.22119C16.0356 7.80615 16.2017 7.63184 16.6167 7.63184H29.3833C29.7983 7.63184 29.9561 7.80615 29.9561 8.22119V9.10107C29.9561 9.51611 29.7983 9.69043 29.3833 9.69043H16.6167ZM18.4263 20.4067C17.6792 20.4067 17.2725 20 17.2725 19.2529V10.9438H28.7192V19.2529C28.7192 20 28.3042 20.4067 27.5654 20.4067H18.4263ZM20.2607 14.2891H25.7393C26.0879 14.2891 26.3369 14.0483 26.3369 13.6831V13.4175C26.3369 13.0522 26.0879 12.8198 25.7393 12.8198H20.2607C19.9121 12.8198 19.6714 13.0522 19.6714 13.4175V13.6831C19.6714 14.0483 19.9121 14.2891 20.2607 14.2891Z" fill="#F3E6D3" fill-opacity="0.4"/>
<rect x="45.5" y="4" width="1" height="20" fill="#F3E6D3" fill-opacity="0.07"/>
<path d="M65.1982 22.5151H72.8101C73.9971 22.5151 74.7939 21.7432 74.8521 20.5562L75.4248 8.48682H76.4209C76.7612 8.48682 77.0352 8.19629 77.0352 7.85596C77.0352 7.51562 76.7612 7.2334 76.4209 7.2334H72.6274V5.96338C72.6274 4.75977 71.8472 4.0293 70.5688 4.0293H67.4146C66.1362 4.0293 65.356 4.75977 65.356 5.96338V7.2334H61.5874C61.2554 7.2334 60.9648 7.51562 60.9648 7.85596C60.9648 8.20459 61.2554 8.48682 61.5874 8.48682H62.5752L63.1562 20.5645C63.2144 21.7515 63.9946 22.5151 65.1982 22.5151ZM66.6758 6.04639C66.6758 5.57324 67.0078 5.26611 67.5059 5.26611H70.4775C70.9756 5.26611 71.3076 5.57324 71.3076 6.04639V7.2334H66.6758V6.04639ZM65.3145 21.2617C64.8413 21.2617 64.4844 20.9048 64.4595 20.415L63.8784 8.48682H74.0884L73.5405 20.415C73.5239 20.9131 73.167 21.2617 72.6772 21.2617H65.3145ZM66.543 19.8423C66.8584 19.8423 67.0659 19.6431 67.0576 19.3525L66.8003 10.4707C66.792 10.1802 66.5845 9.98926 66.2856 9.98926C65.9702 9.98926 65.7627 10.1885 65.771 10.479L66.02 19.3525C66.0283 19.6514 66.2358 19.8423 66.543 19.8423ZM69 19.8423C69.3154 19.8423 69.5396 19.6431 69.5396 19.3525V10.479C69.5396 10.1885 69.3154 9.98926 69 9.98926C68.6846 9.98926 68.4688 10.1885 68.4688 10.479V19.3525C68.4688 19.6431 68.6846 19.8423 69 19.8423ZM71.4653 19.8423C71.7642 19.8423 71.9717 19.6514 71.98 19.3525L72.229 10.479C72.2373 10.1885 72.0298 9.98926 71.7144 9.98926C71.4155 9.98926 71.208 10.1802 71.1997 10.479L70.9507 19.3525C70.9424 19.6431 71.1499 19.8423 71.4653 19.8423Z" fill="#F3E6D3" fill-opacity="0.4"/>
<rect x="91.5" y="4" width="1" height="20" fill="#F3E6D3" fill-opacity="0.07"/>
<path d="M110.634 21.6602H119.35C120.985 21.6602 121.707 20.8965 121.956 19.2695L123.185 10.9438H123.375C124.396 10.9438 124.953 10.3047 124.953 9.29199V8.03027C124.953 7.01758 124.396 6.37842 123.375 6.37842H106.616C105.645 6.37842 105.039 7.01758 105.039 8.03027V9.29199C105.039 10.3047 105.595 10.9438 106.616 10.9438H106.799L108.036 19.2695C108.276 20.9048 109.007 21.6602 110.634 21.6602ZM106.957 9.69043C106.542 9.69043 106.375 9.51611 106.375 9.10107V8.22119C106.375 7.80615 106.542 7.63184 106.957 7.63184H123.043C123.458 7.63184 123.616 7.80615 123.616 8.22119V9.10107C123.616 9.51611 123.458 9.69043 123.043 9.69043H106.957ZM110.659 20.4067C109.912 20.4067 109.48 20.0747 109.364 19.2529L108.127 10.9438H121.865L120.628 19.2529C120.503 20.0747 120.063 20.4067 119.333 20.4067H110.659ZM112.593 18.6719C112.759 18.6719 112.908 18.5889 113.033 18.4727L114.992 16.5054L116.959 18.4727C117.075 18.5806 117.225 18.6719 117.407 18.6719C117.756 18.6719 118.046 18.373 118.046 18.0244C118.046 17.8335 117.963 17.7007 117.847 17.5762L115.896 15.6172L117.855 13.6333C117.98 13.5005 118.055 13.376 118.055 13.2017C118.055 12.8447 117.772 12.5625 117.407 12.5625C117.25 12.5625 117.108 12.6289 116.976 12.7617L114.992 14.729L113.024 12.77C112.892 12.6455 112.759 12.5791 112.593 12.5791C112.236 12.5791 111.945 12.853 111.945 13.2017C111.945 13.3843 112.028 13.5254 112.145 13.6416L114.095 15.6172L112.145 17.5845C112.028 17.7007 111.945 17.8418 111.945 18.0244C111.945 18.373 112.236 18.6719 112.593 18.6719Z" fill="#F3E6D3" fill-opacity="0.4"/>
<path d="M165.78 21.6187C166.344 21.6187 166.751 21.2036 166.751 20.6475V17.4766H166.992C170.212 17.4766 172.238 18.29 173.69 21.0044C173.981 21.5356 174.363 21.6187 174.711 21.6187C175.151 21.6187 175.566 21.2202 175.566 20.5063C175.566 14.3721 172.968 10.5454 166.992 10.5454H166.751V7.40771C166.751 6.85156 166.344 6.39502 165.763 6.39502C165.356 6.39502 165.083 6.56934 164.643 6.98438L158.093 13.1104C157.77 13.4175 157.67 13.7246 157.67 14.0068C157.67 14.2808 157.778 14.5962 158.093 14.895L164.643 21.0791C165.041 21.4526 165.373 21.6187 165.78 21.6187ZM165.307 19.834C165.257 19.834 165.207 19.8091 165.166 19.7593L159.247 14.1646C159.181 14.0981 159.156 14.0566 159.156 14.0068C159.156 13.957 159.181 13.9072 159.247 13.8491L165.157 8.17969C165.199 8.14648 165.249 8.11328 165.298 8.11328C165.373 8.11328 165.415 8.16309 165.415 8.22949V11.5249C165.415 11.7158 165.506 11.7988 165.697 11.7988H166.809C172.503 11.7988 174.222 15.75 174.388 19.668C174.388 19.7344 174.363 19.7593 174.321 19.7593C174.288 19.7593 174.271 19.7344 174.247 19.6763C173.267 17.5928 170.752 16.2231 166.809 16.2231H165.697C165.506 16.2231 165.415 16.3062 165.415 16.4971V19.7095C165.415 19.7842 165.373 19.834 165.307 19.834Z" fill="#F3E6D3" fill-opacity="0.4"/>
<rect x="189.5" y="4" width="1" height="20" fill="#F3E6D3" fill-opacity="0.07"/>
<path d="M209.829 21.6187C210.394 21.6187 210.8 21.2036 210.8 20.6475V19.1699L212.826 21.0791C213.224 21.4526 213.556 21.6187 213.963 21.6187C214.527 21.6187 214.934 21.2036 214.934 20.6475V17.4766H215.175C218.396 17.4766 220.421 18.29 221.874 21.0044C222.164 21.5356 222.546 21.6187 222.895 21.6187C223.334 21.6187 223.75 21.2202 223.75 20.5063C223.75 14.3721 221.143 10.5454 215.175 10.5454H214.934V7.40771C214.934 6.85156 214.527 6.39502 213.946 6.39502C213.54 6.39502 213.266 6.56934 212.826 6.98438L210.8 8.87695V7.40771C210.8 6.85156 210.394 6.39502 209.812 6.39502C209.406 6.39502 209.132 6.56934 208.692 6.98438L202.134 13.1104C201.811 13.4175 201.719 13.7246 201.719 14.0068C201.719 14.2808 201.819 14.5962 202.134 14.895L208.692 21.0791C209.082 21.4526 209.422 21.6187 209.829 21.6187ZM213.49 19.834C213.44 19.834 213.39 19.8091 213.34 19.7593L207.43 14.1646C207.364 14.0981 207.339 14.0566 207.339 14.0068C207.339 13.957 207.364 13.9072 207.43 13.8491L213.34 8.17969C213.382 8.14648 213.432 8.11328 213.481 8.11328C213.556 8.11328 213.598 8.16309 213.598 8.22949V11.5249C213.598 11.7158 213.689 11.7988 213.88 11.7988H214.992C220.687 11.7988 222.405 15.75 222.571 19.668C222.571 19.7344 222.546 19.7593 222.504 19.7593C222.471 19.7593 222.455 19.7344 222.43 19.6763C221.45 17.5928 218.935 16.2231 214.992 16.2231H213.88C213.689 16.2231 213.598 16.3062 213.598 16.4971V19.7095C213.598 19.7842 213.556 19.834 213.49 19.834ZM209.207 19.7593L203.296 14.1646C203.23 14.0981 203.205 14.0566 203.205 14.0068C203.205 13.957 203.23 13.9072 203.296 13.8491L209.207 8.17969C209.248 8.14648 209.298 8.11328 209.348 8.11328C209.422 8.11328 209.464 8.16309 209.464 8.22949V10.1221L206.276 13.1104C205.953 13.4175 205.853 13.7246 205.853 14.0068C205.853 14.2808 205.961 14.5962 206.276 14.895L209.464 17.9082V19.7095C209.464 19.7842 209.422 19.834 209.348 19.834C209.306 19.834 209.256 19.8091 209.207 19.7593Z" fill="#F3E6D3" fill-opacity="0.4"/>
<rect x="235.5" y="4" width="1" height="20" fill="#F3E6D3" fill-opacity="0.07"/>
<path d="M260.212 21.6187C260.619 21.6187 260.951 21.4526 261.349 21.0791L267.898 14.895C268.214 14.5962 268.322 14.2808 268.322 14.0068C268.322 13.7246 268.222 13.4175 267.898 13.1104L261.349 6.98438C260.909 6.56934 260.635 6.39502 260.229 6.39502C259.647 6.39502 259.232 6.85156 259.232 7.40771V10.5454H258.992C253.023 10.5454 250.425 14.3721 250.425 20.5063C250.425 21.2202 250.832 21.6187 251.28 21.6187C251.629 21.6187 252.011 21.5356 252.301 21.0044C253.746 18.29 255.779 17.4766 258.992 17.4766H259.232V20.6475C259.232 21.2036 259.647 21.6187 260.212 21.6187ZM260.685 19.834C260.619 19.834 260.569 19.7842 260.569 19.7095V16.4971C260.569 16.3062 260.486 16.2231 260.295 16.2231H259.183C255.24 16.2231 252.725 17.5928 251.745 19.6763C251.72 19.7344 251.704 19.7593 251.662 19.7593C251.629 19.7593 251.604 19.7344 251.604 19.668C251.77 15.75 253.48 11.7988 259.183 11.7988H260.295C260.486 11.7988 260.569 11.7158 260.569 11.5249V8.22949C260.569 8.16309 260.619 8.11328 260.693 8.11328C260.743 8.11328 260.793 8.14648 260.834 8.17969L266.745 13.8491C266.803 13.9072 266.828 13.957 266.828 14.0068C266.828 14.0566 266.811 14.0981 266.745 14.1646L260.826 19.7593C260.785 19.8091 260.735 19.834 260.685 19.834Z" fill="#F3E6D3" fill-opacity="0.4"/>
</svg>
