<svg width="22" height="23" viewBox="0 0 22 23" fill="none" xmlns="http://www.w3.org/2000/svg">
    <path d="M10.9985 1.15426e-08C10.6494 -6.59885e-05 10.3665 0.282915 10.3666 0.632028L10.3669 3.31775C10.367 3.66689 10.65 3.94996 10.999 3.95002C11.3481 3.95009 11.631 3.66713 11.6309 3.31799L11.6306 0.632267C11.6305 0.283154 11.3475 6.60115e-05 10.9985 1.15426e-08ZM4.04096 2.46819C3.87918 2.46816 3.71671 2.52908 3.59332 2.65249C3.34657 2.8993 3.34665 3.30115 3.59349 3.54803L5.78531 5.74011C6.03217 5.98703 6.4339 5.98709 6.68065 5.74028C6.92742 5.49345 6.92735 5.09166 6.68048 4.84474L4.48867 2.65266C4.36522 2.5292 4.20269 2.46822 4.04096 2.46819ZM17.9569 2.47045C17.7952 2.47042 17.6327 2.53133 17.5093 2.65474L15.3179 4.84638C15.0711 5.0932 15.0712 5.49499 15.3181 5.74191C15.5649 5.98881 15.9666 5.98891 16.2134 5.74208L18.4048 3.55045C18.6515 3.30366 18.6514 2.90181 18.4046 2.65491C18.2812 2.53145 18.1187 2.47048 17.9569 2.47045ZM10.9992 4.79287C8.10313 4.79233 5.31155 7.04586 5.31215 10.2375C5.31252 12.2247 6.09972 13.5126 6.8008 14.5048C7.50189 15.497 8.05198 16.1691 8.05217 17.2246L8.05265 19.7531C8.05281 20.5839 8.74323 21.2283 9.5276 21.2284H9.54742C9.65137 21.9376 10.2677 22.4928 11.0026 22.493C11.7375 22.4931 12.3536 21.9381 12.4572 21.2289H12.4771C13.2615 21.2291 13.9516 20.5849 13.9515 19.7542L13.951 17.2256C13.9508 16.1702 14.5006 15.4983 15.2013 14.5063C15.9021 13.5144 16.6887 12.2268 16.6884 10.2396C16.6877 7.04798 13.8952 4.79342 10.9992 4.79287ZM10.9994 6.05717C13.2417 6.05759 15.4238 7.79128 15.4243 10.2394C15.4246 11.9111 14.8423 12.8292 14.1741 13.7753C13.6043 14.5818 12.9272 15.4284 12.7394 16.5933L9.2634 16.5926C9.07519 15.4277 8.39775 14.5808 7.82768 13.7741C7.15904 12.8278 6.57648 11.9094 6.57616 10.2377C6.5757 7.7896 8.75716 6.05674 10.9994 6.05717ZM1.5733 9.42702C1.22426 9.42695 0.94134 9.7099 0.941406 10.059C0.941472 10.4081 1.2245 10.6912 1.57353 10.6913L4.25889 10.6916C4.60794 10.6917 4.89084 10.4087 4.89077 10.0596C4.89071 9.71046 4.60771 9.42741 4.25865 9.42734L1.5733 9.42702ZM17.7415 9.42989C17.3924 9.42983 17.1095 9.71281 17.1096 10.0619C17.1096 10.4111 17.3926 10.6941 17.7417 10.6942L20.4271 10.6945C20.7761 10.6946 21.059 10.4116 21.0589 10.0625C21.0589 9.71335 20.7759 9.43029 20.4268 9.4302L17.7415 9.42989ZM9.31638 17.3868H12.6871V18.279L9.31638 18.2784V17.3868ZM9.31638 19.0566H12.6871L12.6874 19.754C12.6874 19.8918 12.5816 19.9647 12.4767 19.9647L9.52737 19.9641C9.42252 19.9641 9.3167 19.8911 9.31667 19.7534L9.31638 19.0566Z"
          fill="#F3E6D3"/>
</svg>