<svg width="21" height="16" viewBox="0 0 21 16" fill="none" xmlns="http://www.w3.org/2000/svg">
    <path fill-rule="evenodd" clip-rule="evenodd" d="M14.151 13.4012L9.26716 10.2596L18.6526 2.80159L14.151 13.4012ZM7.68117 13.253L9.26898 11.7605L8.4794 11.2729L7.68117 13.253ZM7.79823 9.77564L12.8569 5.73351L6.29574 9.1785L6.52203 12.7087L7.59753 10.0431C7.63977 9.93763 7.70929 9.84546 7.79891 9.7761L7.79823 9.77564ZM17.5162 2.11645L1.78315 5.73351L5.40379 7.95635L17.5162 2.11645ZM19.7286 0.513848L1.51109 4.4781C1.25593 4.53247 1.02348 4.66413 0.845073 4.85534C0.666667 5.04654 0.550876 5.28811 0.513305 5.54747C0.475733 5.80684 0.518187 6.07155 0.634944 6.30592C0.751701 6.5403 0.937152 6.73308 1.1663 6.85829L4.78285 9.07908L5.53743 14.9368C5.5509 15.0465 5.59235 15.1509 5.65775 15.2398C5.72315 15.3287 5.8103 15.3991 5.91074 15.4442C6.01117 15.4893 6.1215 15.5075 6.23103 15.4972C6.34056 15.4868 6.44557 15.4483 6.53589 15.3852L10.3845 12.5466L13.4196 14.4556C13.5788 14.5677 13.7612 14.6417 13.9532 14.6721C14.1451 14.7025 14.3414 14.6885 14.5271 14.6311C14.7128 14.5736 14.883 14.4743 15.0247 14.3407C15.1664 14.2072 15.2759 14.0428 15.3447 13.8602L20.4586 1.37005C20.4992 1.26219 20.5102 1.14534 20.4904 1.03175C20.4706 0.91816 20.4207 0.812019 20.3461 0.724457C20.2714 0.636894 20.1746 0.571138 20.0659 0.534082C19.9573 0.497027 19.8409 0.490038 19.7286 0.513848Z" fill="#F3E6D3"/>
</svg>
