<svg width="314" height="14" viewBox="0 0 314 14" fill="none" xmlns="http://www.w3.org/2000/svg">
    <path d="M2.5 13.0667V0H8.18574C9.28299 0 10.2348 0.326667 11.0411 0.98C11.8474 1.63333 12.2505 2.45778 12.2505 3.45333C12.2505 4.04444 12.076 4.58889 11.7269 5.08667C11.3777 5.58444 10.9122 5.96556 10.3304 6.23V6.37C11.0452 6.58778 11.623 6.97667 12.0635 7.53667C12.5041 8.09667 12.7244 8.72667 12.7244 9.42667C12.7244 10.4844 12.2879 11.3556 11.4151 12.04C10.5423 12.7244 9.52405 13.0667 8.3603 13.0667H2.5ZM4.64462 5.53H8.03611C8.61799 5.53 9.12089 5.35111 9.54483 4.99333C9.96877 4.63556 10.1807 4.18444 10.1807 3.64C10.1807 3.09556 9.96877 2.64056 9.54483 2.275C9.12089 1.90944 8.61799 1.72667 8.03611 1.72667H4.64462V5.53ZM4.64462 11.2933H8.23561C8.86736 11.2933 9.41599 11.0989 9.88148 10.71C10.347 10.3211 10.5797 9.83111 10.5797 9.24C10.5797 8.66444 10.347 8.18222 9.88148 7.79333C9.41599 7.40445 8.86736 7.21 8.23561 7.21H4.64462V11.2933Z" fill="#F3E6D3" fill-opacity="0.4"/>
    <path d="M27.0376 13.0667V11.025H30.0392L33.939 2.04167H30.5431V0H39.3068V2.04167H36.3052L32.4054 11.025H35.8013V13.0667H27.0376Z" fill="#F3E6D3" fill-opacity="0.4"/>
    <path d="M53.6208 14V12.8333H65.8901V14H53.6208ZM59.7555 10.8889C58.2802 10.8889 57.0351 10.4417 56.0199 9.54722C55.0048 8.65278 54.4972 7.55741 54.4972 6.26111V0H56.25V6.3C56.25 7.15556 56.5859 7.875 57.2578 8.45833C57.9297 9.04167 58.7622 9.33333 59.7555 9.33333C60.7487 9.33333 61.5812 9.04167 62.2531 8.45833C62.925 7.875 63.261 7.15556 63.261 6.3V0H65.0137V6.26111C65.0137 7.55741 64.5061 8.65278 63.491 9.54722C62.4759 10.4417 61.2307 10.8889 59.7555 10.8889Z" fill="#F3E6D3" fill-opacity="0.4"/>
    <path d="M95.8901 13.5333V12.4444H110.204V13.5333H95.8901ZM99.1506 10.5389V9.44998H106.964V10.5389H99.1506ZM95.8901 7.54442V6.45553H110.204V7.54442H95.8901ZM99.1506 4.54998V3.46109H106.964V4.54998H99.1506ZM95.8901 1.55553V0.466644H110.204V1.55553H95.8901Z" fill="#F3E6D3" fill-opacity="0.4"/>
    <path d="M124.518 13.5334V12.4445H138.832V13.5334H124.518ZM129.468 10.5389V9.45004H138.832V10.5389H129.468ZM124.518 7.54448V6.45559H138.832V7.54448H124.518ZM129.468 4.55004V3.46115H138.832V4.55004H129.468ZM124.518 1.55559V0.466705H138.832V1.55559H124.518Z" fill="#F3E6D3" fill-opacity="0.4"/>
    <path d="M153.146 13.5334V12.4445H167.46V13.5334H153.146ZM153.146 10.5389V9.45004H167.46V10.5389H153.146ZM153.146 7.54448V6.45559H167.46V7.54448H153.146ZM153.146 4.55004V3.46115H167.46V4.55004H153.146ZM153.146 1.55559V0.466705H167.46V1.55559H153.146Z" fill="#F3E6D3" fill-opacity="0.4"/>
    <path d="M198.474 13.5333C198.195 13.5333 197.957 13.4281 197.758 13.2176C197.559 13.007 197.46 12.7566 197.46 12.4662C197.46 12.1613 197.559 11.9 197.758 11.6822C197.957 11.4645 198.195 11.3556 198.474 11.3556C198.739 11.3556 198.967 11.4645 199.159 11.6822C199.352 11.9 199.448 12.1613 199.448 12.4662C199.448 12.7566 199.352 13.007 199.159 13.2176C198.967 13.4281 198.739 13.5333 198.474 13.5333ZM201.436 13.0978V11.7911H211.774V13.0978H201.436ZM198.474 8.0889C198.195 8.0889 197.957 7.98364 197.758 7.77312C197.559 7.5626 197.46 7.3049 197.46 7.00001C197.46 6.69512 197.559 6.43742 197.758 6.2269C197.957 6.01638 198.195 5.91112 198.474 5.91112C198.739 5.91112 198.967 6.02001 199.159 6.23779C199.352 6.45556 199.448 6.70964 199.448 7.00001C199.448 7.29038 199.352 7.54445 199.159 7.76223C198.967 7.98001 198.739 8.0889 198.474 8.0889ZM201.436 7.65334V6.34667H211.774V7.65334H201.436ZM198.454 2.64445C198.175 2.64445 197.94 2.53919 197.748 2.32867C197.556 2.11816 197.46 1.86045 197.46 1.55556C197.46 1.25067 197.556 0.992971 197.748 0.782453C197.94 0.571934 198.175 0.466675 198.454 0.466675C198.732 0.466675 198.967 0.571934 199.159 0.782453C199.352 0.992971 199.448 1.25067 199.448 1.55556C199.448 1.86045 199.352 2.11816 199.159 2.32867C198.967 2.53919 198.732 2.64445 198.454 2.64445ZM201.436 2.2089V0.90223H211.774V2.2089H201.436Z" fill="#F3E6D3" fill-opacity="0.4"/>
    <path d="M226.087 13.5334V12.8392H227.757V12.3084H226.922V11.6142H227.757V11.0834H226.087V10.3892H228.433V13.5334H226.087ZM230.242 12.533V11.308H240.401V12.533H230.242ZM226.087 8.57215V7.91882L227.578 6.12215H226.087V5.42799H228.433V6.08132L226.922 7.87799H228.433V8.57215H226.087ZM230.242 7.57174V6.34674H240.401V7.57174H230.242ZM226.922 3.65174V1.1609H226.087V0.466736H227.598V3.65174H226.922ZM230.242 2.61049V1.38549H240.401V2.61049H230.242Z" fill="#F3E6D3" fill-opacity="0.4"/>
    <path d="M273.421 0.626431L274.163 0L280.167 5.06972C280.432 5.2931 280.564 5.56746 280.564 5.89282C280.564 6.21818 280.432 6.49254 280.167 6.71592L277.096 9.30905C276.832 9.53243 276.521 9.64412 276.164 9.64412C275.808 9.64412 275.497 9.53243 275.233 9.30905L272.161 6.71592C271.897 6.49254 271.764 6.21818 271.764 5.89282C271.764 5.56746 271.897 5.2931 272.161 5.06972L275.422 2.31634L273.421 0.626431ZM276.164 2.94277L272.731 5.84183H279.598L276.164 2.94277ZM281.996 9.89178C281.651 9.89178 281.358 9.7898 281.116 9.58585C280.875 9.3819 280.754 9.13424 280.754 8.84287C280.754 8.67777 280.8 8.49809 280.892 8.30385C280.984 8.10961 281.111 7.91051 281.272 7.70656C281.364 7.5803 281.476 7.44433 281.608 7.29865C281.74 7.15297 281.87 7.017 281.996 6.89074C282.123 7.017 282.252 7.15297 282.385 7.29865C282.517 7.44433 282.629 7.5803 282.721 7.70656C282.882 7.91051 283.009 8.10961 283.101 8.30385C283.193 8.49809 283.239 8.67777 283.239 8.84287C283.239 9.13424 283.118 9.3819 282.876 9.58585C282.635 9.7898 282.342 9.89178 281.996 9.89178ZM270.401 14V12.2373H284.205V14H270.401Z" fill="#F3E6D3" fill-opacity="0.4"/>
    <path d="M306.463 12.4442V3.25675H302.839V1.55536H311.812V3.25675H308.188V12.4442H306.463ZM300.251 12.4442V6.65953H298.008V4.95814H304.22V6.65953H301.977V12.4442H300.251Z" fill="#F3E6D3" fill-opacity="0.4"/>
</svg>
